<svg xmlns="http://www.w3.org/2000/svg" xmlns:xlink="http://www.w3.org/1999/xlink" width="500" zoomAndPan="magnify" viewBox="0 0 375 374.999991" height="500" preserveAspectRatio="xMidYMid meet" version="1.0"><defs><g/></defs><g fill="#000000" fill-opacity="1"><g transform="translate(70.142919, 239.806066)"><g><path d="M 37.859375 -5.484375 C 36.210938 -10.535156 34.757812 -15.457031 33.5 -20.25 L 27.453125 -41.078125 C 25.429688 -47.890625 23.851562 -53 22.71875 -56.40625 C 21.707031 -60.1875 20.882812 -63.023438 20.25 -64.921875 L 0.953125 -130.21875 L 39.5625 -130.21875 L 74.953125 0 L 39.5625 0 Z M 67.578125 -57.734375 L 86.6875 -130.21875 L 124.546875 -130.21875 L 105.234375 -64.921875 L 98.234375 -41.078125 C 95.960938 -33.753906 93.878906 -26.8125 91.984375 -20.25 C 90.722656 -15.457031 89.273438 -10.535156 87.640625 -5.484375 L 85.9375 0 L 83.28125 0 Z M 67.578125 -57.734375 "/></g></g></g><g fill="#000000" fill-opacity="1"><g transform="translate(173.192844, 241.538946)"><g><path d="M 39.328125 -93.296875 C 40.046875 -93.390625 41.164062 -93.4375 42.6875 -93.4375 L 46.1875 -93.4375 C 52.175781 -93.4375 58.035156 -92.988281 63.765625 -92.09375 C 66.722656 -91.644531 69.003906 -91.195312 70.609375 -90.75 L 70.609375 -71.5625 C 69.273438 -71.644531 67.039062 -71.863281 63.90625 -72.21875 C 59.695312 -72.664062 56.023438 -72.890625 52.890625 -72.890625 C 49.398438 -72.890625 46.601562 -72.773438 44.5 -72.546875 C 42.394531 -72.328125 40.671875 -71.953125 39.328125 -71.421875 Z M 46.1875 1.078125 C 37.226562 1.078125 30.128906 0.296875 24.890625 -1.265625 C 19.660156 -2.835938 15.703125 -5.457031 13.015625 -9.125 C 10.421875 -12.613281 8.65625 -17.242188 7.71875 -23.015625 C 6.78125 -28.796875 6.3125 -36.519531 6.3125 -46.1875 C 6.3125 -54.6875 6.644531 -61.578125 7.3125 -66.859375 C 7.988281 -72.140625 9.222656 -76.566406 11.015625 -80.140625 C 12.890625 -83.816406 15.640625 -86.660156 19.265625 -88.671875 C 22.890625 -90.679688 27.703125 -92.046875 33.703125 -92.765625 L 33.703125 -46.1875 C 33.703125 -41.164062 33.789062 -36.332031 33.96875 -31.6875 C 34.144531 -28.101562 34.835938 -25.414062 36.046875 -23.625 C 37.253906 -21.832031 39.15625 -20.710938 41.75 -20.265625 C 44.257812 -19.734375 47.972656 -19.46875 52.890625 -19.46875 C 57.992188 -19.46875 62.335938 -19.691406 65.921875 -20.140625 C 67.347656 -20.222656 69.09375 -20.445312 71.15625 -20.8125 L 71.15625 -1.34375 C 66.769531 -0.351562 61.800781 0.316406 56.25 0.671875 C 53.207031 0.941406 49.851562 1.078125 46.1875 1.078125 Z M 46.1875 1.078125 "/></g></g></g></svg>